<?xml version="1.0" encoding="UTF-8"?>
<svg version="1.1" xmlns="http://www.w3.org/2000/svg" width="800" height="800">
<path d="M0 0 C264 0 528 0 800 0 C800 264 800 528 800 800 C536 800 272 800 0 800 C0 536 0 272 0 0 Z " fill="#BC5307" transform="translate(0,0)"/>
<path d="M0 0 C0.97932495 -0.00095673 1.9586499 -0.00191345 2.96765137 -0.00289917 C5.03865625 -0.00357823 7.10966329 -0.00174308 9.18066406 0.00244141 C12.30538904 0.00774736 15.42996724 0.00251103 18.5546875 -0.00390625 C33.53380451 -0.01108926 47.97601584 0.45129893 62.71875 3.3828125 C63.84571289 3.60388672 64.97267578 3.82496094 66.13378906 4.05273438 C74.95434964 5.83860067 83.35772117 8.14276878 91.84375 11.1328125 C92.93429687 11.48730469 94.02484375 11.84179688 95.1484375 12.20703125 C128.58458346 23.41797431 159.41325413 42.68934485 183.84375 68.1328125 C184.730625 68.9990625 185.6175 69.8653125 186.53125 70.7578125 C189.13917263 73.43621953 191.48438876 76.2341687 193.84375 79.1328125 C193.22628906 79.79925781 192.60882813 80.46570313 191.97265625 81.15234375 C186.88004025 86.6945362 181.9880381 92.32513413 177.2578125 98.18359375 C174.50513127 101.5464972 171.68193231 104.84210819 168.84375 108.1328125 C165.28903455 112.25732956 161.77582214 116.40489755 158.34375 120.6328125 C153.95429182 126.03644152 149.42692191 131.31319705 144.88671875 136.58984375 C140.63023075 141.53839966 136.42207994 146.5275979 132.21142578 151.51513672 C130.81915583 153.16190229 129.42369527 154.80591317 128.02734375 156.44921875 C123.79521367 161.43307498 119.58637602 166.42840522 115.46875 171.5078125 C111.30955302 176.62109051 107.00143095 181.59369797 102.66308594 186.5546875 C98.51304579 191.31437956 94.53814842 196.18035565 90.6484375 201.15625 C88.84375 203.1328125 88.84375 203.1328125 85.84375 204.1328125 C85.3590625 203.51535156 84.874375 202.89789063 84.375 202.26171875 C71.67953409 186.22148586 58.08395879 172.89640552 38.84375 165.1328125 C37.96074219 164.73707031 37.07773437 164.34132813 36.16796875 163.93359375 C20.15241808 157.75709586 -1.95618744 159.14187782 -17.6796875 165.57421875 C-25.94289713 169.43695557 -33.14666489 174.32126742 -40.15625 180.1328125 C-40.79949219 180.64972656 -41.44273437 181.16664063 -42.10546875 181.69921875 C-52.94958322 191.38056104 -58.69042463 205.38503854 -62.15625 219.1328125 C-62.33953857 219.79933838 -62.52282715 220.46586426 -62.71166992 221.15258789 C-67.4249129 238.68970103 -62.93279957 257.6647982 -54.15625 273.1328125 C-43.42777357 291.37122243 -26.90538682 304.12248667 -6.34375 309.5703125 C12.9994469 314.12192699 34.52211989 310.88834451 51.56176758 300.63623047 C64.92469632 292.15199691 76.61732086 280.99783341 85.84375 268.1328125 C88.74249417 269.42545377 90.60977526 270.69768818 92.65625 273.1171875 C93.42437012 274.0148584 93.42437012 274.0148584 94.20800781 274.93066406 C94.74780273 275.57487305 95.28759766 276.21908203 95.84375 276.8828125 C96.4119043 277.55022461 96.98005859 278.21763672 97.56542969 278.90527344 C98.74731994 280.29407633 99.92665699 281.68505581 101.10351562 283.078125 C102.74112823 285.0116474 104.39061627 286.93400581 106.046875 288.8515625 C110.52535018 294.03862565 114.96451154 299.24712136 119.28125 304.5703125 C123.42435991 309.67588715 127.7260545 314.63081303 132.04663086 319.58569336 C135.20840838 323.22019101 138.31225206 326.88802093 141.34375 330.6328125 C146.47237131 336.96154995 151.83649671 343.07987084 157.18408203 349.22314453 C164.04355104 357.11587277 170.83644347 365.04922195 177.39453125 373.1953125 C179.32947675 375.51601269 181.29907424 377.76745893 183.32421875 380.0078125 C183.9262915 380.68013916 184.52836426 381.35246582 185.14868164 382.04516602 C186.34433332 383.37553901 187.55031359 384.69671498 188.76733398 386.00756836 C189.31075439 386.61479736 189.8541748 387.22202637 190.4140625 387.84765625 C190.90664551 388.38511475 191.39922852 388.92257324 191.90673828 389.47631836 C192.84375 391.1328125 192.84375 391.1328125 192.59838867 393.20117188 C182.42528972 419.24114563 136.3170717 441.86131281 112.53125 452.3203125 C54.6060088 477.13239188 -10.65126835 479.24531368 -69.66015625 456.37890625 C-98.30541239 444.8603686 -123.25126438 428.71097477 -145.62451172 407.55859375 C-148.00478505 405.34297433 -150.46394931 403.21709141 -152.90625 401.0703125 C-158.27381485 396.20133132 -162.70521454 390.83311627 -167.15625 385.1328125 C-168.10371094 384.00166016 -168.10371094 384.00166016 -169.0703125 382.84765625 C-195.81475106 350.76533592 -212.46471898 310.32393313 -218.15625 269.1328125 C-218.32543945 267.97023926 -218.49462891 266.80766602 -218.66894531 265.60986328 C-220.03596961 255.84644188 -220.55603091 246.23666432 -220.53125 236.3828125 C-220.53137085 235.63323273 -220.5314917 234.88365295 -220.53161621 234.11135864 C-220.49774507 219.19052938 -218.88192713 204.8161407 -216.15625 190.1328125 C-216.01203613 189.30120605 -215.86782227 188.46959961 -215.71923828 187.61279297 C-209.38967448 151.53044323 -191.86099987 117.56226426 -169.15625 89.1328125 C-168.69702148 88.55644043 -168.23779297 87.98006836 -167.76464844 87.38623047 C-149.75951188 65.05033734 -128.6256958 46.97338691 -104.15625 32.1328125 C-103.44919922 31.70371582 -102.74214844 31.27461914 -102.01367188 30.83251953 C-75.50390333 14.96391148 -46.44321379 6.27311077 -16.15625 1.1328125 C-15.26228516 0.95105469 -14.36832031 0.76929688 -13.44726562 0.58203125 C-8.95432733 -0.03124816 -4.5293476 -0.0098447 0 0 Z " fill="#F9EC7E" transform="translate(274.15625,143.8671875)"/>
<path d="M0 0 C62.09247279 -0.35203405 62.09247279 -0.35203405 88 2 C89.04459381 2.09474609 89.04459381 2.09474609 90.11029053 2.19140625 C110.11324388 4.03236606 129.48120673 7.13288764 149 12 C150.01151123 12.23952393 151.02302246 12.47904785 152.06518555 12.72583008 C173.96621966 17.98075188 195.66086332 27.4608128 213 42 C213.88042969 42.72960937 214.76085937 43.45921875 215.66796875 44.2109375 C237.49447019 63.03258019 250.03675366 91.93451542 252.18383789 120.44076538 C252.47830376 126.45954359 252.4793299 132.47553877 252.4375 138.5 C252.43479095 139.41698669 252.43208191 140.33397339 252.42929077 141.27874756 C252.27519582 175.76077355 245.58544293 211.53683486 220.8203125 237.20703125 C213.8119379 244.14745762 203.46408731 254 193 254 C193 254.66 193 255.32 193 256 C193.825 256.20625 194.65 256.4125 195.5 256.625 C213.69498107 263.77302828 225.10112151 283.61794434 232.57421875 300.6171875 C235.40365128 307.33030687 237.32306924 314.06911151 239.125 321.125 C239.29604248 321.7945874 239.46708496 322.4641748 239.64331055 323.15405273 C247.38901087 354.46522538 242.71835802 391.65636755 226.07958984 419.31591797 C223.13851673 423.90377919 219.65805961 427.97678649 216 432 C215.41089844 432.68191406 214.82179688 433.36382813 214.21484375 434.06640625 C203.91172097 445.27529807 189.73455468 452.83812275 176 459 C175.38833984 459.27682617 174.77667969 459.55365234 174.14648438 459.83886719 C158.93642161 466.61069427 143.13032021 470.00184037 126.75 472.625 C124.96251343 472.91612671 124.96251343 472.91612671 123.13891602 473.21313477 C118.76635943 473.87942641 114.38883345 474.45306086 110 475 C109.00056366 475.12948029 108.00112732 475.25896057 106.97140503 475.3923645 C83.337658 478.36468754 59.86137295 478.36789154 36.07794189 478.20599365 C30.97452658 478.1746945 25.87106277 478.1614757 20.76757812 478.14648438 C10.84493 478.11479809 0.92248919 478.06395119 -9 478 C-9.14031377 455.16091815 -8.75212969 432.3433021 -8.29080033 409.50986433 C-8.18700429 404.33833515 -8.08669322 399.16673822 -7.98600769 393.99514771 C-7.81296143 385.12737736 -7.63808696 376.25964481 -7.46185303 367.39193726 C-7.01945436 345.12660527 -6.58556983 322.86110624 -6.1516819 300.59560704 C-6.08186573 297.01494824 -6.01193115 293.43429177 -5.94197083 289.85363579 C-5.32979867 258.50842872 -4.73988524 227.16293129 -4.18684888 195.81662393 C-4.13684431 192.98367588 -4.0867065 190.15073023 -4.03652763 187.31778526 C-3.75565643 171.45712948 -3.47507765 155.59646872 -3.20492554 139.73562622 C-3.04355294 130.26509846 -2.87946384 120.79462208 -2.7109375 111.32421875 C-2.69765514 110.57697611 -2.68437277 109.82973347 -2.67068791 109.05984712 C-2.02158163 72.7004823 -1.0336705 36.35019397 0 0 Z " fill="#F9EC7E" transform="translate(486,154)"/>
<path d="M0 0 C1.43725201 -0.0051917 2.87450947 -0.00889119 4.31176758 -0.01196289 C5.51232536 -0.01529381 5.51232536 -0.01529381 6.73713684 -0.01869202 C18.70974569 0.08020579 31.66089403 4.79873343 40.4765625 13.14453125 C49.04004259 23.57441085 52.03629195 33.74204271 51 47 C49.28787759 58.36619078 44.31981759 68.93218294 35 76 C25.37629309 81.84591938 15.93076411 85.18963205 4.6484375 85.0703125 C3.39981934 85.06016113 2.15120117 85.05000977 0.86474609 85.03955078 C-0.08062012 85.02649902 -1.02598633 85.01344727 -2 85 C-2.37225473 56.62273559 -1.29439583 28.34482352 0 0 Z " fill="#BC5407" transform="translate(582,252)"/>
<path d="M0 0 C12.3192318 -0.11158889 24.19673987 3.23216818 33.375 11.75 C41.7411799 20.6908266 42.39414728 31.12765461 42.2109375 42.82421875 C41.87195702 52.23825073 38.04963681 59.29786508 31.18359375 65.69140625 C23.35706443 72.00006322 14.20613289 75.18320642 4.1875 75.0625 C2.72376953 75.04896484 2.72376953 75.04896484 1.23046875 75.03515625 C0.49441406 75.02355469 -0.24164062 75.01195312 -1 75 C-1.20542237 49.98903667 -0.61000252 25.00199155 0 0 Z " fill="#BC5408" transform="translate(579,469)"/>
</svg>
